Coordinates
version=1
nRows=5
nColumns=40
inDegrees=yes

Units are S.I. units (second, meters, Newtons, ...)
Angles are in degrees.

endheader
time	pelvis_tilt	pelvis_list	pelvis_rotation	pelvis_tx	pelvis_ty	pelvis_tz	hip_flexion_r	hip_adduction_r	hip_rotation_r	knee_angle_r	knee_angle_r_beta	ankle_angle_r	subtalar_angle_r	mtp_angle_r	hip_flexion_l	hip_adduction_l	hip_rotation_l	knee_angle_l	knee_angle_l_beta	ankle_angle_l	subtalar_angle_l	mtp_angle_l	lumbar_extension	lumbar_bending	lumbar_rotation	arm_flex_r	arm_add_r	arm_rot_r	elbow_flex_r	pro_sup_r	wrist_flex_r	wrist_dev_r	arm_flex_l	arm_add_l	arm_rot_l	elbow_flex_l	pro_sup_l	wrist_flex_l	wrist_dev_l
     27.84250000	     -3.17466554	     -6.09504524	     -0.62467300	      0.87499912	      0.92530588	      0.51122093	     18.45776535	      4.37286170	    -14.10443516	     18.42321964	     18.42321964	      5.70055172	     -0.09110358	     -3.84092545	      7.17185854	    -11.98597256	     -5.50495308	     44.73329715	     44.73329715	     10.47827393	    -15.98609060	     -7.74869804	     -7.58241900	      8.08998091	      2.45663764	      1.76861247	    -11.96291776	    -10.87174302	     29.42449705	     46.48246699	      0.00000000	      0.00000000	     16.15192253	     -9.96539505	     -3.73471274	     50.25054863	     46.67819273	      0.00000000	      0.00000000
     27.85457143	     -3.07148888	     -6.17293078	     -0.24690296	      0.87481914	      0.92633983	      0.51296560	     17.58842924	      4.47826913	    -14.79877824	     17.97577702	     17.97577702	      6.06375814	      0.73676387	     -3.98879835	      9.15750780	    -12.47189321	     -4.73153504	     48.41838940	     48.41838940	      9.10299232	    -16.77551103	     -6.63287959	     -7.62332830	      8.19479731	      2.24553157	      3.51533392	    -12.12362188	    -10.72777883	     30.68210613	     46.43090467	      0.00000000	      0.00000000	     15.32328923	     -9.62973991	     -3.30048697	     47.72023427	     46.60518004	      0.00000000	      0.00000000
     27.86664286	     -2.92298348	     -6.00622722	      0.04139151	      0.87443343	      0.92749551	      0.51439594	     16.72460762	      4.22124748	    -15.81643484	     17.67373133	     17.67373133	      6.47420513	      2.39112119	     -4.28403910	     11.21180011	    -12.51327002	     -3.92077744	     52.18878635	     52.18878635	     10.10856932	    -16.51764203	     -0.00056535	     -7.67800642	      8.03511623	      3.30437255	      4.01552634	    -12.81982221	     -9.47019676	     33.53882355	     46.21529806	      0.00000000	      0.00000000	     16.78102989	     -8.48472296	     -2.03179777	     40.43690648	     46.43164598	      0.00000000	      0.00000000
     27.87871429	     -2.87606241	     -6.14807374	      0.38907999	      0.87388848	      0.92833031	      0.51601270	     15.87353889	      4.48093816	    -16.27039082	     17.07425203	     17.07425203	      6.72140103	      2.90639443	     -4.28288486	     13.24656108	    -13.05787618	     -3.35667269	     55.20980419	     55.20980419	      9.04051850	    -17.07953099	      0.79690543	     -7.71376619	      8.17790947	      3.12158107	      5.74465994	    -13.05040798	     -9.46213451	     34.86964158	     46.17140864	      0.00000000	      0.00000000	     15.53715534	     -8.20422675	     -1.73563250	     39.12048680	     46.37351737	      0.00000000	      0.00000000
     27.89078571	     -2.79132742	     -6.08385576	      0.67983445	      0.87311626	      0.92926883	      0.51731018	     15.04624674	      4.40713302	    -17.10860291	     16.63289001	     16.63289001	      7.01509944	      4.23443137	     -4.51775362	     15.30972795	    -13.22194787	     -2.76404038	     58.09959159	     58.09959159	     10.04360346	    -16.99479208	      6.15334019	     -7.81080950	      8.12349312	      3.58809955	      6.65652513	    -13.71634313	     -8.43692218	     37.90041419	     45.98179788	      0.00000000	      0.00000000	     15.57436696	     -7.60188779	     -0.70736012	     34.96916301	     46.22056222	      0.00000000	      0.00000000
